<svg width="26" height="33" viewBox="0 0 26 33" fill="none" xmlns="http://www.w3.org/2000/svg">
<g clip-path="url(#clip0_11_5579)">
<path d="M9.13191 13.0933C9.64572 13.4738 11.5725 13.6844 12.2846 13.6634C12.3538 13.6656 12.4225 13.6506 12.4843 13.6198C12.5462 13.5891 12.5993 13.5435 12.6388 13.4874C12.6778 13.5437 12.7306 13.5894 12.7923 13.6201C12.854 13.6509 12.9226 13.6658 12.9917 13.6634C13.7038 13.6844 15.6306 13.4738 16.1444 13.0933C16.6582 12.7128 16.2292 11.9728 16.3152 11.5923C16.4013 11.2118 17.4501 9.94478 18.3917 9.90168C19.3332 9.85858 21.0243 10.5358 21.4945 12.0787C21.9646 13.6216 21.8374 15.2063 20.6389 15.8614C19.4405 16.5165 18.3056 16.1569 18.0911 15.8614C17.8766 15.5659 16.9787 15.5868 16.6357 16.0301C16.2928 16.4734 15.0906 17.2565 15.0906 17.7207V17.7921C14.8412 17.6764 14.5443 17.6284 14.3972 17.9547C14.1216 18.5703 13.6053 20.3324 13.7425 20.9259C13.8796 21.5194 14.7626 21.3372 14.9559 21.645C16.2516 23.7075 14.9334 25.3797 13.599 25.8574C13.5828 25.5385 13.4519 22.9478 13.4743 22.4823C13.4955 21.9898 13.599 18.0495 13.599 18.0052C13.6008 17.9322 13.6281 17.8622 13.6764 17.8069C14.6404 16.6987 15.2714 15.9697 15.3151 15.9242C15.4421 15.8719 15.5735 15.8307 15.7079 15.801C15.8326 15.7678 15.9748 15.7333 16.0733 15.6976C16.2117 15.6484 16.6519 15.3282 17.6534 14.5783C18.1123 14.2348 18.5862 13.8802 18.7147 13.8038C19.0464 13.6068 20.4606 12.852 20.5853 12.8052L20.5329 12.6451L20.4918 12.4801C20.3558 12.5134 18.7396 13.395 18.5401 13.5132C18.3954 13.5994 17.9564 13.9282 17.4476 14.3087C16.9051 14.7138 16.0858 15.3282 15.9586 15.3799C15.875 15.4107 15.7478 15.4427 15.6243 15.4735C15.3325 15.5474 15.1642 15.5966 15.0818 15.673C14.9995 15.7493 14.139 16.7479 13.417 17.5828C13.3182 17.6966 13.2622 17.8406 13.2586 17.9904C13.2586 18.0298 13.1488 21.9676 13.1276 22.4638C13.1064 22.9601 13.2523 25.7885 13.2523 25.903L13.4718 25.8919C13.2119 25.9758 12.9371 26.0056 12.665 25.9793C12.4318 25.9532 12.2006 25.9121 11.9728 25.8562H11.989C11.989 24.6372 12.0165 21.3975 12.0788 21.0453C12.1474 20.6624 12.1063 18.8523 12.0863 18.0901C12.0835 17.9574 12.04 17.8286 11.9616 17.7207C11.045 16.4512 10.4651 15.769 10.2406 15.6939C10.1658 15.6693 10.0897 15.6459 10.0111 15.6225C9.67792 15.5307 9.35623 15.4023 9.0521 15.2396C8.83136 15.1164 8.11802 14.6436 7.36227 14.1313C5.87697 13.134 4.95911 12.5306 4.73089 12.4715L4.65107 12.8003C4.85061 12.8544 6.24612 13.7853 7.17022 14.4109C7.96587 14.944 8.65427 15.4058 8.88998 15.5314C9.21421 15.7042 9.55674 15.8413 9.91135 15.9402C9.98743 15.9624 10.0598 15.9845 10.1271 16.0067C10.2518 16.0646 10.7968 16.6839 11.6835 17.9103C11.7211 17.9621 11.742 18.0239 11.7433 18.0877C11.7758 19.2944 11.7932 20.687 11.7433 20.9751C11.6685 21.3963 11.6511 25.1038 11.6486 25.7515C10.6309 25.4191 9.85399 24.7665 9.76045 23.7814C9.63574 22.4848 10.3516 21.6302 10.6808 21.5563C11.0101 21.4825 11.3168 20.6882 11.0637 20.2203C10.8105 19.7524 10.5786 18.409 10.1832 18.2317L10.1196 18.2046C10.1596 18.0406 10.1768 17.872 10.1708 17.7035C10.1708 17.2393 8.97228 16.4574 8.63058 16.0128C8.28887 15.5683 7.38347 15.5486 7.17521 15.8441C6.96694 16.1397 5.82584 16.4992 4.62738 15.8441C3.42891 15.1891 3.30046 13.6043 3.77186 12.0615C4.24327 10.5186 5.93309 9.84504 6.87466 9.88444C7.81622 9.92385 8.87002 11.1946 8.95108 11.5751C9.03215 11.9556 8.61935 12.7128 9.13191 13.0933Z" fill="white"/>
<path d="M21.3344 19.1292C22.4967 18.7868 22.226 17.5099 22.1038 17.0938L21.0226 18.1773C21.1648 18.197 21.2645 18.229 21.2895 18.2709C21.3344 18.346 21.3481 18.6846 21.3344 19.1292Z" fill="#6BC34F"/>
<path d="M22.4032 20.5556C22.902 19.701 23.0342 18.5325 23.0442 16.4121L22.7449 16.5611C22.82 17.3302 22.7325 18.1063 22.488 18.8403C22.3296 19.3464 21.7297 19.6592 21.2982 19.8254C21.2446 20.5507 21.1386 21.3264 20.9902 21.6601C20.6909 22.3299 21.8893 21.4434 22.4032 20.5556Z" fill="#6BC34F"/>
<path d="M24.5429 14.8063C24.5005 14.214 24.185 13.4026 23.9792 14.0675C23.7763 14.752 23.6328 15.4523 23.5502 16.1608C23.4527 16.94 23.411 17.7251 23.4255 18.5102C23.4679 20.6823 23.0601 21.096 21.7444 22.1784C20.4287 23.2607 20.0857 23.5562 20.0857 23.5562C20.0857 23.5562 20.9001 20.3695 20.814 19.5962C20.7691 19.1886 20.6532 18.8636 20.4773 18.7207C20.3015 18.5779 20.1032 18.6099 19.8538 18.855C19.3163 19.3721 18.8997 22.6721 18.4233 23.5981C17.9469 24.5241 17.4706 25.5202 17.4706 25.5202C17.4706 25.5202 16.5252 27.5815 17.4706 28.1257C18.4159 28.67 18.6079 28.7119 20.5883 26.4302C22.5687 24.1485 24.4094 22.7103 24.5379 20.7241C24.6663 18.738 24.5853 15.3973 24.5429 14.8063Z" fill="#6BC34F"/>
<path d="M3.80889 19.1289C3.79517 18.6844 3.80889 18.3434 3.85378 18.267C3.87873 18.2251 3.97849 18.1931 4.12066 18.1734L3.03943 17.0898C2.91721 17.5097 2.64784 18.7866 3.80889 19.1289Z" fill="white"/>
<path d="M4.15627 21.6548C4.00787 21.3211 3.90685 20.5466 3.84824 19.8201C3.41674 19.6563 2.81813 19.3436 2.6585 18.835C2.41446 18.1022 2.32699 17.3274 2.4016 16.5595L2.10229 15.9746C2.11227 18.1024 2.24696 19.7031 2.7458 20.5564C3.25711 21.4442 4.45558 22.3308 4.15627 21.6548Z" fill="white"/>
<path d="M7.67014 28.1287C8.61544 27.5845 7.67014 25.5232 7.67014 25.5232C7.67014 25.5232 7.19499 24.5307 6.7186 23.6011C6.2422 22.6714 5.82567 19.3751 5.28692 18.8579C5.0375 18.6117 4.823 18.5944 4.66337 18.7237C4.48628 18.8666 4.3703 19.1916 4.3254 19.5992C4.23935 20.3725 5.05371 23.5592 5.05371 23.5592C5.05371 23.5592 4.71076 23.2637 3.39506 22.1813C2.07937 21.099 1.67281 20.6902 1.71646 18.5132C1.73101 17.7281 1.68934 16.943 1.59175 16.1638C1.50936 15.4553 1.36626 14.755 1.164 14.0705C0.956978 13.4105 0.64146 14.2219 0.599059 14.8093C0.556657 15.3966 0.474349 18.7397 0.599059 20.7259C0.723769 22.712 2.56824 24.149 4.54864 26.4319C6.52904 28.7148 6.72358 28.673 7.67014 28.1287Z" fill="#6BC34F"/>
<path d="M6.25071 7.18636C6.37416 7.14758 6.48341 7.07395 6.56498 6.97457C6.73583 6.79233 8.00663 4.62271 8.23235 4.15726C8.45808 3.69181 8.7312 3.77677 8.7312 3.77677L8.78856 3.97379C8.84842 4.63625 8.10764 5.63733 7.73351 5.9895C7.35938 6.34166 7.73351 6.60517 7.73351 6.60517C7.73351 6.60517 7.91933 6.50666 8.40445 5.88606C8.88958 5.26547 9.06043 4.15356 9.06043 4.15356L9.24625 3.92823H9.53184C9.54555 3.96024 9.56301 4.00088 9.5892 4.05136C9.77377 4.44539 9.30362 5.38983 9.04671 5.81218C8.78981 6.23453 9.04671 6.24931 9.04671 6.24931C9.98952 5.58685 9.94587 3.82603 9.85982 3.66349C9.77377 3.50095 9.40338 3.5933 9.23627 3.52189C9.06916 3.45047 9.23627 3.11431 9.23627 3.11431C9.23627 3.11431 9.94962 2.93084 9.92093 3.02935C9.89225 3.12786 10.0344 3.33965 10.3038 3.46648C10.5732 3.5933 11.0333 3.48002 11.0333 3.48002L11.0758 3.73368L11.2192 3.83218C11.2479 5.59301 11.8041 5.73461 12.3603 6.25547C12.706 6.57495 13.1325 6.79656 13.5949 6.897C13.3941 7.40431 13.6223 8.26379 13.6223 8.26379C13.7284 8.30631 13.8442 8.3196 13.9573 8.30226C14.0704 8.28491 14.1766 8.23757 14.2646 8.16528C14.5502 7.91163 14.4217 6.897 14.4217 6.84036C14.4217 6.78371 14.1935 7.20976 14.1935 7.20976L14.0364 6.84036C13.9126 6.52292 13.8081 6.19851 13.7234 5.86883C13.7234 5.86883 13.5513 5.4317 13.8942 5.76909C14.2372 6.10647 14.2683 6.12248 14.3644 5.91069C14.4604 5.6989 14.2796 5.03767 14.2796 5.03767C14.2796 5.03767 14.2646 4.95271 14.3793 4.99457C14.5126 5.06749 14.638 5.15373 14.7535 5.25192C14.7535 5.25192 14.8108 4.92439 14.9106 4.98103C15.0104 5.03767 15.0253 5.14972 15.1388 5.46002C15.2523 5.77032 15.4531 5.61517 15.4531 5.61517C15.4266 5.42733 15.4308 5.23651 15.4656 5.04998C15.5229 4.69782 15.7661 4.96502 15.7661 4.96502C15.8372 5.69767 16.4645 6.34659 16.4645 6.34659C16.7501 5.88114 16.0367 4.47248 16.0367 4.47248C15.857 4.41694 15.6687 4.39318 15.4805 4.4023C15.0786 4.42546 14.6784 4.47234 14.2821 4.54267C14.2821 4.54267 14.0538 4.51435 13.6822 4.06368C13.3106 3.613 13.4827 3.40121 13.4827 3.40121C13.5883 3.39454 13.6943 3.4041 13.7969 3.42953C13.9541 3.47263 14.1823 3.92207 14.4953 4.12032C14.8083 4.31856 15.2236 4.02181 15.5092 3.71151C15.7948 3.40121 15.7948 2.68334 15.7948 2.68334L15.7424 1.85834C15.7395 1.81571 15.7454 1.77295 15.7597 1.73261C15.7739 1.69227 15.7963 1.65519 15.8254 1.62358C15.8545 1.59196 15.8898 1.56647 15.9291 1.54863C15.9684 1.53078 16.0109 1.52095 16.0542 1.51972C16.7975 1.50471 17.5245 1.73575 18.1194 2.17603C18.0084 2.00118 17.0855 1.10599 16.1078 0.725505C15.7499 0.585131 15.4643 0.810467 15.2885 1.02226C15.2265 1.09817 15.1822 1.1866 15.1587 1.28129C15.1352 1.37598 15.1331 1.47462 15.1525 1.57021C15.3109 2.35211 15.2498 2.96162 15.0952 3.19065C14.9243 3.44431 14.2671 3.35935 14.2671 3.35935C13.8393 3.04905 13.6685 1.66871 13.6685 1.13308C13.6685 0.597445 13.3455 0.1714 12.6147 0.19849C12.4161 0.195717 12.2207 0.246848 12.0496 0.346301C11.8785 0.445754 11.7383 0.589707 11.6444 0.762445C11.6444 0.762445 11.93 0.874497 12.268 1.32517C12.6059 1.77584 12.4102 3.18573 12.4102 3.18573L12.2393 3.12909C12.2393 3.12909 12.1246 3.35442 11.6394 3.35442C11.1543 3.35442 10.527 2.84711 10.527 2.08614C10.527 1.32517 10.3437 0.768602 10.3038 0.762445C9.47572 0.63931 8.80727 1.50125 8.29097 1.65024C7.77467 1.79924 7.72104 2.08614 7.72104 2.08614C8.37702 2.24129 8.84344 1.80416 9.36098 1.47047C9.87853 1.13677 9.93216 1.34733 9.93216 1.34733C9.9929 1.66859 9.94284 2.00067 9.78999 2.29054C9.37595 2.22036 9.48943 1.93838 9.48943 1.93838C9.48943 1.93838 9.13276 1.99502 8.67632 2.39028C8.21988 2.78554 7.55393 2.81263 7.55393 2.81263C7.5689 3.24853 8.05277 3.12293 8.05277 3.12293L7.90935 3.40368C7.837 3.38279 7.7596 3.38676 7.68983 3.41494C7.62005 3.44312 7.56203 3.49385 7.52525 3.55883C7.63873 3.8408 8.05277 3.7423 8.05277 3.7423L8.01037 3.91099C7.53522 4.18804 6.53629 6.15819 6.25071 6.63718C5.96512 7.11618 6.25071 7.18636 6.25071 7.18636Z" fill="#6BC34F"/>
<path d="M10.6166 5.3619C10.7414 5.67959 10.9022 5.60817 10.9022 5.60817C10.9022 5.60817 11.0456 4.94571 10.9022 4.52335C10.8572 4.35778 10.795 4.19725 10.7164 4.04436C10.7164 4.04436 10.4171 3.92123 10.2887 4.18473C10.1602 4.44824 9.83222 5.48134 9.8609 5.70668L9.88958 5.93201C9.88958 5.93201 10.351 5.80272 10.4121 4.97279C10.4732 4.14287 10.6166 4.68097 10.6166 4.68097C10.6166 4.68097 10.5206 5.10947 10.6166 5.3619Z" fill="#6BC34F"/>
<path d="M16.65 3.7456C16.6811 3.72772 16.7155 3.71609 16.7511 3.71136C16.7868 3.70664 16.8231 3.70892 16.8578 3.71808C16.8926 3.72723 16.9252 3.74308 16.9537 3.7647C16.9823 3.78633 17.0062 3.81332 17.0242 3.84411C17.1027 3.69019 16.8995 3.46485 16.8995 3.46485C16.8995 3.46485 17.0566 3.29493 17.3135 3.52026C17.5704 3.7456 17.7712 3.73205 17.7712 3.73205C17.6303 3.60892 17.4981 2.9994 17.4981 2.9994L17.9557 2.87627C17.6203 2.28646 17.2711 2.08698 17.0067 2.01433C16.7036 1.95642 16.3948 1.93288 16.0863 1.94414C16.0692 2.11026 16.0667 2.27753 16.0789 2.44407C16.096 2.63601 16.1268 2.82652 16.1711 3.01418C16.2267 3.32206 16.2267 3.6372 16.1711 3.94508C16.3399 3.90239 16.5013 3.83516 16.65 3.7456Z" fill="#6BC34F"/>
<path d="M17.6654 6.73191C17.6654 6.73191 17.9223 6.6334 17.5656 6.02758C17.2089 5.42176 17.0506 5.0696 16.9732 4.61892C16.9715 4.56423 16.9559 4.51084 16.9278 4.46367C16.8997 4.4165 16.8601 4.37706 16.8125 4.34898C16.765 4.3209 16.711 4.30508 16.6556 4.30298C16.6002 4.30087 16.5452 4.31256 16.4956 4.33695C16.4956 4.33695 16.6241 6.06945 17.6654 6.73191Z" fill="#6BC34F"/>
<path d="M17.5632 4.36914C17.5632 4.36914 17.4784 5.73593 18.3476 6.42548C19.2168 7.11504 19.2904 7.18645 19.2904 7.18645C19.2904 7.18645 19.2617 6.83429 18.7479 6.00313C18.2341 5.17198 17.9485 4.55754 17.5632 4.36914Z" fill="#6BC34F"/>
<path d="M12.7423 8.18068C12.9131 8.15359 12.9131 7.12418 12.9131 7.12418C12.8125 7.13372 12.711 7.11961 12.6169 7.08302C12.5228 7.04642 12.4389 6.98838 12.3719 6.91362C12.1574 6.65997 11.8868 6.64519 11.8294 6.82866C11.772 7.01213 11.2058 8.0403 12.0152 8.50575C12.0946 8.45103 12.189 8.42168 12.2858 8.42168C12.3826 8.42168 12.4771 8.45103 12.5564 8.50575C12.5564 8.50575 12.5714 8.209 12.7423 8.18068Z" fill="#6BC34F"/>
<path d="M15.1244 7.68054C15.0097 7.94774 15.2379 8.22972 15.2379 8.22972H15.5098C15.5098 8.22972 15.5098 8.01792 15.7667 8.05979C15.9305 8.08348 16.0978 8.06437 16.2518 8.00438C16.1461 7.93673 16.0535 7.8508 15.9787 7.75072C15.7767 7.52539 15.4798 7.43673 15.5098 7.48229C15.5544 7.53211 15.5824 7.59429 15.59 7.66039C15.5976 7.72648 15.5844 7.79327 15.5522 7.85169L15.1244 7.68054Z" fill="#6BC34F"/>
<path d="M14.1681 10.157C14.1823 10.157 14.1681 10.1417 14.15 10.1289C14.1526 10.1519 14.1565 10.1608 14.1681 10.157Z" fill="#6BC34F"/>
<path d="M13.7266 8.89032C13.7266 8.89032 13.6256 8.82014 13.6119 9.29913C13.5982 9.77812 13.441 9.98991 13.441 9.98991C13.5612 10.0469 13.6931 10.076 13.8264 10.0749C13.9373 10.0715 14.0477 10.0908 14.1506 10.1315C14.1472 9.93691 14.1247 9.74309 14.0833 9.55279C13.9823 9.06025 13.7266 8.89032 13.7266 8.89032Z" fill="#6BC34F"/>
<path d="M12.7404 9.70679C12.7404 9.70679 13.0397 9.73511 13.1545 9.52209C13.2692 9.30907 13.1545 8.88672 13.1545 8.88672C13.0253 8.96296 12.8859 9.02099 12.7404 9.05911C12.4548 9.14284 12.6157 9.70802 12.6157 9.70802L12.7404 9.70679Z" fill="#6BC34F"/>
<path d="M11.8719 9.52366C11.8129 9.69503 11.7133 9.84998 11.5813 9.97556C11.6633 10.0264 11.7582 10.0533 11.855 10.0533C11.9519 10.0533 12.0467 10.0264 12.1288 9.97556C12.3857 9.79332 12.2535 9.62216 12.2535 9.62216V9.1875C12.2148 9.1875 12.0153 9.18504 11.8719 9.52366Z" fill="#6BC34F"/>
<path d="M3.82468 30.0227C3.82468 30.0227 5.01442 29.2445 6.00587 28.9145C5.68287 28.5007 5.05183 28.2188 4.32477 28.2188C3.26972 28.2188 2.41296 28.811 2.41296 29.5388C2.41296 29.8724 2.95795 30.4672 3.82468 30.0227Z" fill="#6BC34F"/>
<path d="M21.3664 30.4679C19.8611 29.5863 17.4592 28.5359 13.9286 28.3586C13.9286 28.3685 13.9286 28.3771 13.9286 28.3869C13.5458 28.3598 13.1579 28.3401 12.7614 28.334H12.5119C12.1141 28.334 11.7263 28.3598 11.3434 28.3869C11.344 28.3775 11.344 28.368 11.3434 28.3586C7.81285 28.5359 5.41218 29.59 3.90568 30.4679C3.27464 30.8373 2.96287 30.5726 2.96412 30.5738L4.35838 32.2497C4.52475 32.4134 4.74431 32.5139 4.97836 32.5335C5.21242 32.5531 5.44598 32.4905 5.6379 32.3568C7.25914 31.2338 9.71095 30.5172 12.4521 30.5172C12.5157 30.5172 12.5768 30.5172 12.6404 30.5172C12.704 30.5172 12.7651 30.5172 12.8287 30.5172C15.5723 30.5172 18.0229 31.2338 19.6441 32.3568C19.836 32.4905 20.0696 32.5531 20.3037 32.5335C20.5377 32.5139 20.7573 32.4134 20.9237 32.2497L22.3167 30.5738C22.3167 30.5738 21.9974 30.8373 21.3664 30.4679Z" fill="#6BC34F"/>
<path d="M20.9454 28.2148C20.2183 28.2148 19.5873 28.4968 19.2643 28.9106C20.2557 29.2455 21.4455 30.0188 21.4442 30.0188C22.311 30.4633 22.8572 29.8685 22.8572 29.5262C22.8572 28.8071 21.9992 28.2148 20.9454 28.2148Z" fill="#6BC34F"/>
<path d="M12.6663 0.774037C12.7896 0.774037 12.8896 0.720562 12.8896 0.654597C12.8896 0.588632 12.7896 0.535156 12.6663 0.535156C12.5431 0.535156 12.4431 0.588632 12.4431 0.654597C12.4431 0.720562 12.5431 0.774037 12.6663 0.774037Z" fill="black"/>
<path d="M13.4071 26.1162L11.8669 25.9106L11.9318 18.0189C11.3569 17.0892 10.3205 15.6547 9.21684 15.4417C8.23288 15.2508 5.32214 12.9568 4.95923 12.6933L5.78232 11.5938C7.10799 12.5604 7.86498 13.4765 10.0823 14.331C10.7707 14.597 11.8794 15.6338 12.5903 16.2889C13.6478 15.4417 13.9621 14.911 14.5993 14.7866C15.067 14.6339 17.8792 13.0049 19.7536 11.7218L20.5281 12.7069C18.5502 13.49 16.0697 15.4294 15.3301 15.8468C15.0446 15.9699 14.199 17.0474 13.4383 17.9142L13.4071 26.1162ZM15.0421 14.3532H15.0271H15.0421Z" fill="#00AEEF"/>
<path d="M21.0789 18.5095C21.0789 18.5095 21.5453 18.5341 21.8047 17.7485C22.0641 16.963 20.8357 18.129 20.8357 18.129L21.0789 18.5095Z" fill="black"/>
<path d="M24.6276 13.2837C24.5891 13.2374 24.5416 13.199 24.488 13.1708C24.4343 13.1426 24.3756 13.1251 24.3151 13.1194C24.2546 13.1137 24.1936 13.1198 24.1355 13.1375C24.0774 13.1551 24.0234 13.1839 23.9766 13.2222C23.9756 13.0032 23.9615 12.7844 23.9342 12.5671C23.7459 11.1326 22.7532 9.17843 20.9836 8.34358C20.9811 8.32656 20.9727 8.31091 20.9599 8.29925C20.9333 8.27347 20.9106 8.24402 20.8926 8.21183C20.8851 8.19893 20.8738 8.18862 20.8601 8.18228C20.8582 8.17592 20.8557 8.16974 20.8527 8.16381C20.8276 8.12961 20.7963 8.10037 20.7604 8.07761C20.74 8.05584 20.7183 8.03528 20.6955 8.01604C20.7703 8.03205 20.8452 8.04683 20.925 8.0653C20.3415 7.53063 19.8054 6.94773 19.3225 6.32295C18.933 5.81765 18.5793 5.28651 18.2637 4.73328C18.5206 4.87489 19.2913 4.87489 19.2913 4.87489C18.8348 4.53627 18.6341 3.66325 18.6341 3.66325C18.8424 3.74671 19.0714 3.76644 19.2913 3.71989C18.977 3.38127 18.8062 2.76067 18.8062 2.76067C19.1479 2.78899 19.1479 2.6203 19.1479 2.6203C18.9196 2.47993 17.2647 1.01955 16.2945 0.535634C15.6797 0.231493 15.2544 0.637836 15.0249 0.976455C14.9599 1.07143 14.9177 1.1798 14.9015 1.29332C14.8853 1.40683 14.8955 1.52251 14.9314 1.63153C15.0823 2.09082 15.2856 2.95522 14.7244 3.09929C13.9549 3.29631 13.8402 1.94429 13.8689 1.21164C13.8976 0.478993 13.4411 0 12.613 0C11.785 0 11.1864 0.985075 11.1864 0.985075C11.1864 0.985075 11.7575 1.07004 11.9346 1.18209C12.1117 1.29414 12.5058 2.19672 12.0768 2.75944C11.6478 3.32216 11.1352 2.78776 10.907 2.5341C10.6788 2.28045 10.8783 0.78806 10.5927 0.477761C10.3071 0.167463 8.6248 0.900112 7.84911 1.54903C7.36553 1.94436 6.78472 2.20645 6.16552 2.30877C6.16552 2.67817 6.65064 2.64739 6.65064 2.64739C6.5417 2.94972 6.38788 3.2344 6.1942 3.49209L6.65064 3.63369C6.67932 4.14101 6.22164 4.53504 6.22164 4.53504H6.7342C6.61464 5.00728 6.45142 5.46768 6.24658 5.91045C5.87644 6.70448 5.37583 7.43259 4.76502 8.0653C4.87476 8.0653 4.97703 8.0653 5.07555 8.0653C2.81081 8.6194 1.55497 10.9331 1.34047 12.5671C1.30847 12.8211 1.29513 13.0771 1.30057 13.333C1.03369 13.0719 0.745604 13.0399 0.51489 13.2837C-0.0837195 13.9191 -0.254573 21.0954 0.51489 22.1777C1.18957 23.1234 3.88207 26.6106 5.01195 27.7816C4.7861 27.7307 4.55518 27.7051 4.32354 27.7052C2.9854 27.7052 1.89793 28.5253 1.89793 29.5325C1.89793 29.5781 1.89793 29.6224 1.90541 29.6668C1.9302 29.9032 2.01187 30.1303 2.14361 30.3292C2.2067 30.4246 2.2785 30.514 2.35811 30.5964L3.91699 32.5345C4.18241 32.7953 4.53191 32.956 4.90483 32.9888C5.27774 33.0217 5.65053 32.9245 5.9585 32.7143C7.31535 31.7945 9.31695 31.1702 11.5854 31.0422C11.5854 31.0508 11.5854 31.0606 11.5854 31.0693C11.9284 31.0409 12.2788 31.0262 12.633 31.0212C12.9872 31.0163 13.3376 31.0409 13.6806 31.0693C13.6799 31.0602 13.6799 31.0512 13.6806 31.0422C15.9478 31.1653 17.9494 31.7945 19.3075 32.7143C19.6153 32.9244 19.9878 33.0215 20.3605 32.9887C20.7332 32.9558 21.0825 32.7952 21.3478 32.5345L22.9066 30.5964C22.9862 30.5137 23.0584 30.4243 23.1224 30.3292C23.2541 30.1303 23.3358 29.9032 23.3606 29.6668C23.3606 29.6224 23.3693 29.5781 23.3693 29.5325C23.3693 28.5253 22.2806 27.7052 20.9437 27.7052C20.6545 27.7061 20.3668 27.7476 20.0894 27.8284C21.1894 26.7078 23.9442 23.1406 24.6276 22.1826C25.3971 21.0954 25.2262 13.9142 24.6276 13.2837ZM22.9702 10.6647C23.4566 11.2914 23.7185 12.3885 23.6674 13.5411C23.3381 14.0127 23.0737 14.8537 23.0438 15.9668C22.9511 16.1377 22.8469 16.3022 22.732 16.4594C22.646 15.574 22.0561 16.9667 22.0561 16.9667C22.0561 16.9667 22.0748 17.0159 22.0998 17.0997L22.111 17.1403C21.6377 17.5622 21.0987 17.906 20.5147 18.1586C19.9909 18.1685 19.3674 18.2731 19.194 18.5022C18.1327 18.5662 16.5988 18.3495 16.0974 18.299C15.9686 18.2909 15.8421 18.2614 15.7233 18.2116L15.6398 18.1562C15.5238 18.0503 15.5437 17.8976 15.515 17.7067C15.4726 17.3903 16.928 16.2291 16.928 16.2291L17.3558 15.9964C17.3558 15.9964 19.108 17.2043 20.6307 16.25C22.1534 15.2957 22.1983 13.9142 21.793 12.1657C21.3877 10.4172 19.5794 9.76086 19.4821 9.70298C18.8448 9.35698 18.134 9.51828 17.2373 10.0515C16.3406 10.5846 16.0812 11.4207 16.1024 11.8012C16.1236 12.1817 15.9964 12.7518 15.7171 12.8996C15.4377 13.0473 13.8128 13.365 13.1555 13.4069C12.8911 13.4241 12.7814 13.3244 12.739 13.1729C12.7491 13.073 12.7491 12.9724 12.739 12.8725C12.7614 12.7013 12.8113 12.5178 12.835 12.3713C12.8986 11.9699 14.3116 10.7016 15.2108 9.70298C16.1099 8.70437 17.1575 7.89168 19.1603 8.08131C21.1632 8.27093 22.1983 9.67097 22.9702 10.6647ZM21.2879 18.2719C21.2692 18.2399 21.2056 18.214 21.112 18.1943C21.454 18.0176 21.7696 17.7951 22.0499 17.5331C22.0935 17.4925 22.1347 17.4506 22.1746 17.41C22.2744 17.9591 22.2756 18.8531 21.3315 19.1338C21.3465 18.6856 21.3328 18.347 21.2879 18.2719ZM21.2966 19.8185C21.7281 19.6547 22.328 19.3419 22.4864 18.8334C22.7087 18.1632 22.8001 17.4575 22.7557 16.7537C22.858 16.6194 22.9528 16.4815 23.0426 16.3399V16.4089C23.0326 18.5293 22.8954 19.6978 22.4016 20.5524C21.8877 21.4401 20.6893 22.3267 20.9886 21.6507C21.137 21.3195 21.243 20.5437 21.2966 19.8246V19.8185ZM17.6501 22.9178C17.5254 22.3366 17.2211 21.4722 16.9018 20.6509C16.9411 20.6475 16.979 20.6345 17.0119 20.613C17.0448 20.5915 17.0717 20.5622 17.0901 20.5277C17.4186 19.981 17.7801 19.4542 18.1726 18.9504C18.2017 18.9185 18.2193 18.8781 18.2227 18.8353C18.2261 18.7925 18.215 18.7499 18.1913 18.714C18.316 18.714 18.4408 18.7029 18.538 18.693C18.6964 18.677 18.9009 18.677 19.1391 18.6672C19.0406 19.353 18.1178 22.8981 18.1178 22.8981C17.9644 23.1591 17.8259 23.4115 17.6987 23.6553C17.7156 23.4084 17.6992 23.1604 17.6501 22.9178ZM7.08214 18.9627C7.31036 19.1425 7.37271 19.4294 7.53359 19.6596C7.72315 19.9281 7.98254 20.0931 8.10975 20.4107C8.13247 20.4711 8.17686 20.521 8.23446 20.5511C8.18832 20.6743 8.14716 20.7863 8.11599 20.8873C7.93017 21.4906 7.24301 22.69 7.83539 24.3954C8.42776 26.1008 9.7684 27.459 11.3797 27.933L11.447 27.9515C10.4939 27.9895 9.54438 28.0903 8.60485 28.2532C8.74203 27.9515 8.84055 25.9924 7.02228 22.903C7.02228 22.903 6.09318 19.3321 6.0009 18.6647C6.29521 18.6807 6.54713 18.6795 6.7342 18.6979C6.819 18.7053 6.91503 18.7115 7.01479 18.7152C6.99479 18.7577 6.99057 18.8058 7.00289 18.851C7.0152 18.8963 7.04326 18.9358 7.08214 18.9627ZM7.56227 18.7164C8.04116 18.7164 8.57367 18.6992 9.02762 18.6918C8.86549 19.0772 8.65349 19.5537 8.46143 19.9982C8.31475 19.795 8.15696 19.5997 7.98878 19.4134C7.81044 19.2016 7.74185 18.9331 7.56227 18.7226V18.7164ZM16.5539 28.2298C15.7447 28.093 14.9281 28.003 14.1083 27.9601C15.1135 27.7138 16.0862 27.1523 16.7173 26.1463C16.4541 27.1745 16.4865 27.9281 16.5539 28.2359V28.2298ZM16.9168 25.4543C16.0301 27.1376 14.4662 27.5193 13.3438 27.8148C12.2214 28.1103 10.3084 27.4663 9.09371 26.2018C7.87904 24.9372 7.79174 23.0717 7.89525 22.1543C7.94139 21.7394 8.18458 21.1446 8.46393 20.5671C8.4937 20.56 8.52151 20.5465 8.54539 20.5276C8.56927 20.5087 8.58863 20.4848 8.60209 20.4576C8.61555 20.4304 8.62277 20.4007 8.62325 20.3705C8.62373 20.3402 8.61744 20.3102 8.60485 20.2827C8.90415 19.6916 9.21094 19.1572 9.34313 18.9134C9.38378 18.8348 9.43136 18.7598 9.4853 18.6893C9.62365 18.6841 9.75839 18.6443 9.87689 18.5736C9.93177 18.5921 9.98913 18.6142 10.0552 18.6327C10.3396 18.7164 10.8035 20.4292 10.8035 20.4292L10.8471 20.8922C10.8471 20.8922 9.186 21.9635 9.44789 23.6553C9.70978 25.3472 10.8397 26.0294 12.4958 26.2165C15.318 26.5354 15.9017 23.9041 15.7744 22.9153C15.6472 21.9265 15.1908 21.5066 14.8591 21.3798C14.5273 21.253 14.0896 20.9254 14.0647 20.6262C14.0397 20.327 14.3577 18.7854 14.5635 18.1956C14.6807 17.8532 14.8915 17.8742 15.1097 17.9936C15.1422 18.3482 15.2806 18.6635 15.8331 18.6918C16.1523 19.3075 16.5738 20.5093 16.9717 21.3934C17.3807 22.3021 17.6576 23.249 17.3396 24.4175C17.1812 24.7709 17.0515 25.1022 16.9455 25.4112C16.9318 25.4272 16.9255 25.4432 16.9168 25.4605V25.4543ZM9.13113 13.0953C9.64493 13.4758 11.5717 13.6864 12.2838 13.6654C12.353 13.6676 12.4217 13.6526 12.4836 13.6218C12.5454 13.5911 12.5985 13.5455 12.638 13.4894C12.677 13.5457 12.7298 13.5914 12.7915 13.6222C12.8532 13.6529 12.9218 13.6678 12.9909 13.6654C13.703 13.6864 15.6298 13.4758 16.1436 13.0953C16.6574 12.7149 16.2284 11.9748 16.3144 11.5943C16.4005 11.2138 17.4493 9.94679 18.3909 9.90369C19.3324 9.8606 21.0235 10.5378 21.4937 12.0807C21.9638 13.6236 21.8366 15.2083 20.6382 15.8634C19.4397 16.5185 18.3048 16.1589 18.0903 15.8634C17.8758 15.5679 16.9779 15.5888 16.6349 16.0321C16.292 16.4754 15.0898 17.2585 15.0898 17.7227V17.7941C14.8404 17.6784 14.5436 17.6304 14.3964 17.9567C14.1208 18.5723 13.6045 20.3344 13.7417 20.9279C13.8789 21.5214 14.7618 21.3392 14.9551 21.647C16.2508 23.7095 14.9327 25.3817 13.5983 25.8594C13.582 25.5405 13.4511 22.9498 13.4735 22.4843C13.4947 21.9918 13.5983 18.0515 13.5983 18.0072C13.6 17.9342 13.6273 17.8642 13.6756 17.8089C14.6396 16.7007 15.2706 15.9718 15.3143 15.9262C15.4413 15.8739 15.5728 15.8327 15.7071 15.8031C15.8318 15.7698 15.974 15.7353 16.0725 15.6996C16.2109 15.6504 16.6512 15.3302 17.6526 14.5803C18.1115 14.2368 18.5854 13.8822 18.7139 13.8058C19.0456 13.6088 20.4598 12.854 20.5845 12.8072L20.5321 12.6471L20.491 12.4821C20.3551 12.5154 18.7388 13.397 18.5393 13.5152C18.3946 13.6014 17.9556 13.9302 17.4468 14.3107C16.9043 14.7158 16.085 15.3302 15.9578 15.3819C15.8742 15.4127 15.747 15.4447 15.6235 15.4755C15.3317 15.5494 15.1634 15.5987 15.0811 15.675C14.9987 15.7513 14.1382 16.75 13.4162 17.5848C13.3174 17.6986 13.2614 17.8426 13.2578 17.9924C13.2578 18.0318 13.148 21.9696 13.1268 22.4659C13.1056 22.9621 13.2516 25.7905 13.2516 25.905L13.471 25.8939C13.2111 25.9779 12.9364 26.0076 12.6642 25.9813C12.431 25.9552 12.1998 25.9141 11.972 25.8582H11.9882C11.9882 24.6392 12.0157 21.3995 12.078 21.0473C12.1466 20.6644 12.1055 18.8543 12.0855 18.0921C12.0827 17.9594 12.0392 17.8306 11.9608 17.7227C11.0442 16.4532 10.4643 15.771 10.2398 15.6959C10.165 15.6713 10.0889 15.6479 10.0103 15.6245C9.67713 15.5328 9.35544 15.4043 9.05131 15.2416C8.83058 15.1184 8.11723 14.6456 7.36149 14.1334C5.87619 13.136 4.95832 12.5326 4.7301 12.4735L4.65029 12.8023C4.84982 12.8565 6.24533 13.7874 7.16943 14.4129C7.96509 14.946 8.65349 15.4078 8.88919 15.5334C9.21343 15.7062 9.55595 15.8433 9.91057 15.9422C9.98664 15.9644 10.059 15.9865 10.1263 16.0087C10.251 16.0666 10.796 16.6859 11.6827 17.9123C11.7204 17.9641 11.7412 18.0259 11.7426 18.0897C11.775 19.2964 11.7924 20.689 11.7426 20.9772C11.6677 21.3983 11.6503 25.1059 11.6478 25.7535C10.6301 25.4211 9.8532 24.7685 9.75967 23.7834C9.63496 22.4868 10.3508 21.6322 10.68 21.5584C11.0093 21.4845 11.3161 20.6903 11.0629 20.2223C10.8097 19.7544 10.5778 18.411 10.1824 18.2337L10.1188 18.2066C10.1588 18.0426 10.176 17.8741 10.17 17.7055C10.17 17.2413 8.9715 16.4594 8.62979 16.0149C8.28808 15.5703 7.38269 15.5506 7.17442 15.8462C6.96616 16.1417 5.82506 16.5012 4.62659 15.8462C3.42812 15.1911 3.29967 13.6063 3.77108 12.0635C4.24248 10.5206 5.93231 9.84705 6.87387 9.88645C7.81543 9.92586 8.86924 11.1966 8.9503 11.5771C9.03136 11.9576 8.61857 12.7149 9.13113 13.0953ZM12.7477 8.18474C12.5769 8.21306 12.5619 8.50981 12.5619 8.50981C12.4825 8.45509 12.3881 8.42575 12.2913 8.42575C12.1945 8.42575 12.1 8.45509 12.0207 8.50981C11.2063 8.04436 11.7712 7.01619 11.8348 6.83272C11.8984 6.64925 12.1628 6.66403 12.3773 6.91769C12.4443 6.99244 12.5283 7.05049 12.6224 7.08708C12.7164 7.12367 12.8179 7.13778 12.9186 7.12825C12.9186 7.12825 12.9123 8.15765 12.7415 8.18474H12.7477ZM13.1618 8.8866C13.1618 8.8866 13.2753 9.31019 13.1618 9.52198C13.0483 9.73377 12.7477 9.70668 12.7477 9.70668H12.623C12.623 9.70668 12.4659 9.14149 12.7477 9.05776C12.891 9.01949 13.0282 8.9619 13.1555 8.8866H13.1618ZM11.8772 9.52198C12.0207 9.18336 12.2202 9.18582 12.2514 9.18582V9.62048C12.2514 9.62048 12.3898 9.79164 12.1267 9.97388C12.0446 10.0247 11.9498 10.0517 11.8529 10.0517C11.7561 10.0517 11.6612 10.0247 11.5792 9.97388C11.7116 9.84843 11.8117 9.69347 11.871 9.52198H11.8772ZM14.1071 10.4861C13.3326 11.2742 12.7103 11.9539 12.7103 11.9539L12.6442 12.3738L12.5769 11.9539C12.5769 11.9539 11.8648 11.1818 11.0205 10.331L11.1577 10.4541L14.1071 10.4861ZM13.4474 9.99358C13.4474 9.99358 13.6045 9.78179 13.6182 9.3028C13.6319 8.82381 13.7329 8.89399 13.7329 8.89399C13.7329 8.89399 13.9886 9.06392 14.0896 9.55645C14.131 9.74676 14.1535 9.94058 14.157 10.1352C14.1794 10.1475 14.1881 10.1586 14.1744 10.1623C14.1607 10.166 14.1594 10.1623 14.157 10.1352C14.054 10.0945 13.9436 10.0752 13.8327 10.0785C13.6969 10.0791 13.5628 10.0483 13.4411 9.98866L13.4474 9.99358ZM16.1124 18.7016C16.5938 18.7016 17.1899 18.7275 17.7174 18.7275C17.3584 19.191 17.0253 19.6736 16.7198 20.1731C16.4753 19.5648 16.2483 19.0255 16.1062 18.6967L16.1124 18.7016ZM15.5163 7.48534C15.4826 7.43978 15.7832 7.52843 15.9852 7.75377C16.0585 7.85198 16.1489 7.9366 16.2521 8.00373C16.0981 8.06372 15.9308 8.08283 15.767 8.05914C15.5101 8.01728 15.5101 8.22907 15.5101 8.22907H15.2382C15.2382 8.22907 15.01 7.94709 15.1247 7.67989L15.5525 7.85597C15.5861 7.79687 15.6001 7.72883 15.5925 7.66145C15.5849 7.59407 15.5561 7.53075 15.5101 7.48041L15.5163 7.48534ZM15.2669 8.57754C15.4017 8.58513 15.5362 8.5572 15.6565 8.49662C15.7768 8.43604 15.8786 8.34498 15.9515 8.23276C16.2541 8.24168 16.5525 8.16107 16.8083 8.00127C16.8083 8.00127 15.01 6.8241 14.8391 6.40052C14.6683 5.97694 15.4103 6.11978 15.4103 6.11978L15.4951 6.34511L16.0089 6.52612L16.1236 6.67511L16.9791 6.72437L17.9207 7.83257H17.9344C17.9381 7.84022 17.9423 7.84762 17.9469 7.85474C17.3843 7.90025 16.8436 8.08998 16.378 8.40515C15.7613 8.88025 15.178 9.39614 14.6321 9.94925C14.6321 9.94925 14.4326 9.7744 14.3191 9.21045C14.2056 8.64649 14.3764 8.79056 14.7182 8.77455C14.9186 8.76902 15.1116 8.698 15.2669 8.57261V8.57754ZM16.1798 3.01925C16.1355 2.83159 16.1046 2.64108 16.0875 2.44914C16.0753 2.2826 16.0778 2.11533 16.095 1.94922C16.4034 1.93795 16.7122 1.9615 17.0153 2.0194C17.2797 2.08959 17.6289 2.28907 17.9644 2.88134L17.5067 3.00448C17.5067 3.00448 17.6389 3.6103 17.7798 3.73713C17.7798 3.73713 17.579 3.75067 17.3221 3.52534C17.0652 3.3 16.9081 3.46993 16.9081 3.46993C16.9081 3.46993 17.1076 3.69526 17.0328 3.84918C17.0148 3.81839 16.9909 3.79141 16.9623 3.76978C16.9338 3.74815 16.9012 3.7323 16.8664 3.72315C16.8317 3.714 16.7954 3.71171 16.7598 3.71644C16.7241 3.72116 16.6897 3.7328 16.6586 3.75067C16.5093 3.8368 16.348 3.9007 16.1798 3.9403C16.2347 3.63402 16.2347 3.3206 16.1798 3.01433V3.01925ZM16.9717 4.62616C17.049 5.07683 17.2074 5.42899 17.564 6.03481C17.9207 6.64063 17.6638 6.73914 17.6638 6.73914C16.6225 6.07668 16.494 4.34418 16.494 4.34418C16.5433 4.31993 16.5979 4.3082 16.6528 4.31006C16.7078 4.31192 16.7615 4.32731 16.8089 4.35483C16.8564 4.38235 16.8961 4.42113 16.9245 4.46765C16.9529 4.51417 16.9691 4.56696 16.9717 4.62123V4.62616ZM18.7488 6.00649C19.2626 6.83765 19.2913 7.18981 19.2913 7.18981C19.2913 7.18981 19.2189 7.11963 18.3485 6.42884C17.478 5.73806 17.564 4.3725 17.564 4.3725C17.9494 4.55597 18.235 5.17164 18.7488 6.00157V6.00649ZM6.24907 6.63571C6.53466 6.15672 7.53359 4.18657 8.00499 3.90213L8.04739 3.73343C8.04739 3.73343 7.63336 3.83194 7.51987 3.54996C7.55665 3.48499 7.61468 3.43426 7.68445 3.40608C7.75422 3.37789 7.83162 3.37392 7.90398 3.39481L8.04739 3.11407C8.04739 3.11407 7.56227 3.2372 7.54855 2.80377C7.54855 2.80377 8.21949 2.77545 8.67095 2.38142C9.1224 1.98739 9.48406 1.92951 9.48406 1.92951C9.48406 1.92951 9.37057 2.21149 9.78461 2.28168C9.93746 1.99181 9.98752 1.65972 9.92678 1.33847C9.92678 1.33847 9.86941 1.12668 9.35561 1.4616C8.8418 1.79653 8.37164 2.23612 7.71567 2.07728C7.71567 2.07728 7.77303 1.7953 8.28559 1.64138C8.79815 1.48746 9.47782 0.634142 10.3022 0.76097C10.3421 0.767127 10.5304 1.32369 10.5304 2.08466C10.5304 2.84563 11.1539 3.35295 11.6428 3.35295C12.1317 3.35295 12.2427 3.12761 12.2427 3.12761L12.4135 3.18425C12.4135 3.18425 12.613 1.7756 12.2713 1.32369C11.9296 0.871791 11.6478 0.76097 11.6478 0.76097C11.7417 0.588232 11.8818 0.444279 12.0529 0.344826C12.224 0.245373 12.4195 0.194242 12.618 0.197015C13.3501 0.169925 13.6743 0.592276 13.6743 1.12668C13.6743 1.66108 13.8452 3.04265 14.2729 3.35295C14.2729 3.35295 14.9302 3.43791 15.101 3.18425C15.2557 2.95522 15.3168 2.34571 15.1584 1.56381C15.139 1.46822 15.1411 1.36958 15.1646 1.27489C15.1881 1.1802 15.2324 1.09177 15.2943 1.01586C15.4702 0.804067 15.7557 0.578731 16.1137 0.719104C17.0852 1.09959 18.0093 1.99478 18.1202 2.16963C17.5254 1.72935 16.7983 1.49831 16.055 1.51332C16.0118 1.51455 15.9692 1.52438 15.9299 1.54223C15.8906 1.56007 15.8553 1.58556 15.8262 1.61718C15.7971 1.64879 15.7748 1.68587 15.7605 1.72621C15.7463 1.76655 15.7404 1.80931 15.7433 1.85194L15.7956 2.67694C15.7956 2.67694 15.7956 3.39481 15.5101 3.70511C15.2245 4.01541 14.8104 4.31093 14.4962 4.11392C14.1819 3.9169 13.9549 3.46623 13.7978 3.42313C13.6951 3.3977 13.5891 3.38814 13.4835 3.39481C13.4835 3.39481 13.3127 3.6066 13.6831 4.05728C14.0534 4.50795 14.2829 4.53627 14.2829 4.53627C14.6792 4.46594 15.0794 4.41906 15.4814 4.3959C15.6695 4.38678 15.8578 4.41054 16.0376 4.46608C16.0376 4.46608 16.7509 5.87474 16.4653 6.34019C16.4653 6.34019 15.8418 5.69127 15.767 4.95862C15.767 4.95862 15.5175 4.69142 15.4664 5.04358C15.4314 5.22964 15.4268 5.42003 15.4527 5.60754C15.4527 5.60754 15.2532 5.76145 15.1384 5.45239C15.0237 5.14332 15.0137 5.03004 14.9102 4.9734C14.8067 4.91675 14.7531 5.24429 14.7531 5.24429C14.6376 5.1461 14.5122 5.05986 14.3789 4.98694C14.2642 4.94507 14.2792 5.03004 14.2792 5.03004C14.2792 5.03004 14.4637 5.69127 14.364 5.90306C14.2642 6.11485 14.2393 6.10007 13.8938 5.76146C13.5484 5.42284 13.723 5.86119 13.723 5.86119C13.8077 6.19087 13.9122 6.51529 14.036 6.83272L14.1931 7.20213C14.1931 7.20213 14.4213 6.77854 14.4213 6.83272C14.4213 6.8869 14.5461 7.90399 14.2642 8.15765C14.1762 8.22993 14.07 8.27728 13.9569 8.29462C13.8438 8.31197 13.728 8.29868 13.6219 8.25616C13.6219 8.25616 13.3937 7.39422 13.5945 6.88937C13.1284 6.79312 12.6974 6.57398 12.3474 6.25522C11.7912 5.73437 11.235 5.59276 11.2063 3.83194L11.0629 3.73343L11.0205 3.47978C11.0205 3.47978 10.5591 3.59306 10.2909 3.46623C10.0228 3.3394 9.87939 3.12761 9.90807 3.0291C9.93676 2.9306 9.22341 3.11407 9.22341 3.11407C9.22341 3.11407 9.06004 3.44776 9.2284 3.52164C9.39676 3.59552 9.76964 3.49332 9.85195 3.66325C9.93426 3.83317 9.97666 5.59276 9.03884 6.24907C9.03884 6.24907 8.78194 6.23429 9.03884 5.81194C9.29575 5.38959 9.7659 4.44515 9.58133 4.05112C9.55514 3.99694 9.53768 3.95631 9.52397 3.92798H9.24586L9.06004 4.15332C9.06004 4.15332 8.88919 5.26153 8.40407 5.88582C7.91894 6.51011 7.73188 6.60739 7.73188 6.60739C7.73188 6.60739 7.35775 6.34019 7.73188 5.99172C8.10601 5.64325 8.84554 4.63724 8.78817 3.97601L8.72956 3.7753C8.72956 3.7753 8.45894 3.69157 8.23072 4.15578C8.0025 4.62 6.7342 6.79086 6.56334 6.9731C6.48177 7.07248 6.37252 7.1461 6.24907 7.18489C6.24907 7.18489 5.96349 7.1147 6.24907 6.63571ZM10.4107 4.97216C10.3495 5.80209 9.88812 5.93138 9.88812 5.93138L9.85944 5.70604C9.83075 5.48071 10.1587 4.45131 10.2872 4.1841C10.4156 3.9169 10.7149 4.04373 10.7149 4.04373C10.7935 4.19662 10.8558 4.35714 10.9008 4.52272C11.0442 4.94507 10.9008 5.60754 10.9008 5.60754C10.9008 5.60754 10.7374 5.67772 10.6152 5.36127C10.5192 5.10884 10.6152 4.6791 10.6152 4.6791C10.6152 4.6791 10.4755 4.14224 10.4107 4.97216ZM5.87993 7.92C6.09616 7.86263 6.30077 7.76891 6.48477 7.64295C6.66506 7.50983 6.81646 7.34235 6.92999 7.15041L6.9911 7.04698C9.18849 6.88321 9.53145 6.38944 9.53145 6.38944C9.53145 6.38944 9.78835 6.42145 10.1874 6.16041C10.5865 5.89937 11.3285 5.73806 11.3285 5.73806C11.4146 6.69235 12.0967 6.25522 11.6141 6.64925C11.1315 7.04328 11.24 8.65388 11.24 8.65388L11.4395 8.59847L11.4732 9.09963L11.7301 9.11933C11.7301 9.54168 10.8359 9.89507 10.6526 9.9628C10.1042 9.40399 9.51753 8.88313 8.89667 8.40392C7.64957 7.51612 5.87993 7.92 5.87993 7.92C5.87993 7.92 8.49012 7.74884 5.77891 7.94832L5.87993 7.92ZM2.30448 10.6647C3.07519 9.67097 4.11528 8.27709 6.12311 8.08623C8.13095 7.89537 9.17478 8.70929 10.0739 9.70791C10.9731 10.7065 12.3848 11.9748 12.4434 12.3762C12.4659 12.5228 12.5158 12.7062 12.5382 12.8774C12.5288 12.9773 12.5288 13.0779 12.5382 13.1778C12.4996 13.3293 12.3861 13.4241 12.1217 13.4118C11.4645 13.3699 9.83824 13.0522 9.56013 12.9045C9.28203 12.7567 9.15357 12.1903 9.17478 11.8061C9.19598 11.4219 8.93907 10.5896 8.03991 10.0564C7.14075 9.52321 6.4299 9.3619 5.79513 9.70791C5.69785 9.76086 3.8908 10.411 3.48424 12.1706C3.07769 13.9302 3.1176 15.2884 4.63657 16.2439C6.15554 17.1994 7.91146 15.9902 7.91146 15.9902L8.33922 16.2229C8.33922 16.2229 9.79459 17.3853 9.75218 17.7006C9.73098 17.8631 9.74221 17.9973 9.67486 18.0983C9.59561 18.0949 9.51665 18.1098 9.44417 18.1416C9.37168 18.1734 9.30765 18.2214 9.25708 18.2818L9.17478 18.2928C8.65099 18.3458 6.99983 18.5785 5.93231 18.4849C5.7652 18.2842 5.24391 18.182 4.76377 18.1574C4.13186 17.8849 3.55318 17.5053 3.05399 17.0356C3.06896 16.9876 3.07893 16.9605 3.07893 16.9605C3.07893 16.9605 2.56887 15.7575 2.42795 16.2993C2.29274 16.1003 2.17588 15.8897 2.07876 15.6701C2.02638 14.8685 1.84804 14.2269 1.61733 13.7861C1.52255 12.5437 1.78319 11.3357 2.30448 10.6647ZM2.65617 18.8396C2.8158 19.3456 3.41441 19.6584 3.8459 19.8246C3.89953 20.5499 4.00553 21.3256 4.15394 21.6593C4.45324 22.3353 3.25478 21.4488 2.74097 20.561C2.24213 19.7064 2.10994 18.5379 2.09996 16.4175C2.09996 16.3338 2.09996 16.2525 2.09996 16.1651V16.1306C2.19224 16.2882 2.29201 16.4417 2.39926 16.5911C2.328 17.3501 2.41544 18.1154 2.65617 18.8396ZM3.80974 19.1338C2.80083 18.8396 2.86817 17.8323 2.99288 17.3004C3.0702 17.3792 3.14877 17.458 3.22983 17.5331C3.5012 17.7861 3.80521 18.0027 4.13398 18.1771H4.1265C3.98433 18.1968 3.88456 18.2288 3.85962 18.2707C3.80974 18.347 3.79602 18.6856 3.80974 19.1301V19.1338ZM0.60094 20.7235C0.47623 18.7374 0.558539 15.3979 0.60094 14.8069C0.643342 14.2159 0.958859 13.4032 1.16588 14.0681C1.36815 14.7527 1.51124 15.4529 1.59363 16.1614C1.69122 16.9406 1.73289 17.7257 1.71834 18.5108C1.6747 20.6829 2.0825 21.0966 3.39819 22.179C4.71389 23.2613 5.05684 23.5568 5.05684 23.5568C5.05684 23.5568 4.23999 20.3689 4.32479 19.5956C4.36969 19.188 4.48567 18.8629 4.66276 18.7201C4.82114 18.5908 5.03689 18.6093 5.28631 18.8543C5.82506 19.3715 6.24034 22.6715 6.71798 23.5975C7.19562 24.5234 7.66952 25.5196 7.66952 25.5196C7.66952 25.5196 8.61483 27.5809 7.66952 28.1251C6.72422 28.6694 6.53216 28.7112 4.55176 26.4296C2.57136 24.1479 0.729392 22.7097 0.60094 20.7235ZM2.41173 29.5325C2.41173 28.8048 3.26849 28.2125 4.32354 28.2125C5.05061 28.2125 5.68164 28.4945 6.00464 28.9082C5.01319 29.2432 3.82346 30.0165 3.82346 30.0165C2.95672 30.4659 2.41173 29.8712 2.41173 29.5325ZM20.9163 32.2415C20.7499 32.4052 20.5303 32.5057 20.2963 32.5253C20.0622 32.5449 19.8286 32.4823 19.6367 32.3486C18.0155 31.2256 15.5624 30.509 12.8213 30.509C12.759 30.509 12.6966 30.509 12.633 30.509C12.5694 30.509 12.5083 30.509 12.4447 30.509C9.70105 30.509 7.25174 31.2256 5.63051 32.3486C5.43859 32.4823 5.20503 32.5449 4.97097 32.5253C4.73691 32.5057 4.51736 32.4052 4.35098 32.2415L2.95672 30.5718C2.95672 30.5718 3.26725 30.8353 3.89828 30.4659C5.40478 29.5843 7.80546 28.5339 11.336 28.3566C11.3366 28.366 11.3366 28.3755 11.336 28.3849C11.7189 28.3578 12.1067 28.3381 12.5045 28.332H12.754C13.1505 28.332 13.5384 28.3578 13.9213 28.3849C13.9213 28.3751 13.9213 28.3665 13.9213 28.3566C17.4518 28.5339 19.8537 29.5879 21.359 30.4659C21.99 30.8353 22.3018 30.5706 22.3005 30.5718L20.9163 32.2415ZM22.8555 29.5325C22.8555 29.8712 22.3093 30.4659 21.4425 30.0251C21.4425 30.0251 20.254 29.2469 19.2626 28.9169C19.5856 28.5031 20.2166 28.2212 20.9437 28.2212C21.9975 28.2125 22.8555 28.8048 22.8555 29.5325ZM24.5416 20.7235C24.4169 22.7097 22.5724 24.1466 20.592 26.4296C18.6116 28.7125 18.4208 28.6694 17.4742 28.1251C16.5277 27.5809 17.4742 25.5196 17.4742 25.5196C17.4742 25.5196 17.9494 24.5271 18.427 23.5975C18.9047 22.6678 19.32 19.3715 19.8575 18.8543C20.1069 18.6081 20.3214 18.5908 20.481 18.7201C20.6406 18.8494 20.7728 19.188 20.8177 19.5956C20.9038 20.3689 20.0894 23.5556 20.0894 23.5556C20.0894 23.5556 20.4324 23.2601 21.7481 22.1777C23.0638 21.0954 23.4716 20.6816 23.4292 18.5096C23.4147 17.7245 23.4564 16.9394 23.5539 16.1601C23.6365 15.4516 23.78 14.7514 23.9829 14.0669C24.1887 13.4069 24.5042 14.2183 24.5466 14.8057C24.589 15.393 24.67 18.7374 24.5416 20.7235Z" fill="black"/>
<path d="M7.13994 17.8274C9.66532 17.7855 8.38704 17.2991 8.38704 17.2991C8.38704 17.2991 7.80838 16.6022 7.59513 16.6835C7.38187 16.7647 7.53028 17.0849 6.80322 17.128C6.07616 17.1711 4.45243 17.6587 3.29262 15.8388C2.13282 14.0188 2.49323 13.7701 2.51692 13.5165C2.54062 13.2628 2.39221 12.375 2.39221 12.375C2.39221 12.439 1.66515 14.2343 2.62792 15.5666C3.59068 16.899 4.6133 17.8693 7.13994 17.8274Z" fill="black"/>
<path d="M17.2095 8.88917C16.0958 9.18961 14.2551 12.0414 13.9134 12.2138C13.5716 12.3862 13.4208 12.5512 13.5704 12.6361C13.7201 12.7211 14.4795 12.5302 14.8599 12.5302C15.2403 12.5302 15.4972 12.4071 15.5184 12.2138C15.5396 12.0205 15.3937 11.1992 15.8613 10.6291C16.329 10.0589 17.081 8.89286 18.7297 8.89286H19.5652C19.5652 8.89286 18.6037 8.51238 17.2095 8.88917Z" fill="black"/>
<path d="M9.41078 10.6261C9.88094 11.1962 9.72754 12.02 9.75249 12.2108C9.77743 12.4017 10.0306 12.5273 10.411 12.5273C10.7913 12.5273 11.5508 12.7182 11.7005 12.6332C11.8501 12.5482 11.7005 12.3795 11.3575 12.2108C11.0146 12.0421 9.17508 9.19035 8.06141 8.88621C6.67089 8.50942 5.70813 8.88621 5.70813 8.88621H6.54244C8.18987 8.88991 8.93937 10.0548 9.41078 10.6261Z" fill="black"/>
<path d="M21.9872 15.8427C20.8274 17.6626 19.2049 17.1738 18.4766 17.1319C17.7483 17.09 17.8992 16.7723 17.6847 16.6874C17.4702 16.6024 16.8928 17.303 16.8928 17.303C16.8928 17.303 15.6095 17.7894 18.1399 17.8313C20.6702 17.8732 21.6929 16.9016 22.6556 15.5705C23.6184 14.2395 22.8913 12.4429 22.8913 12.3789C22.8913 12.3789 22.7417 13.2667 22.7666 13.5204C22.7916 13.774 23.147 14.0227 21.9872 15.8427Z" fill="black"/>
<path d="M9.3007 24.9867C8.17831 23.2812 9.17599 22.0499 9.4728 21.4305C9.76961 20.8112 9.98785 21.0611 10.1363 20.9072C10.2847 20.7533 9.9018 19.9825 9.9018 19.9825C9.9018 19.9825 9.95293 18.676 9.00389 20.8653C8.05484 23.0547 8.50505 24.323 9.29322 25.6676C10.0814 27.0122 11.8672 27.0652 11.9209 27.0898C11.9209 27.0898 11.2212 26.6206 10.9968 26.5431C10.7723 26.4655 10.4281 26.6908 9.3007 24.9867Z" fill="black"/>
<path d="M15.0707 18.8593C14.946 18.9591 14.8313 19.6942 14.6966 20.0254C14.5619 20.3567 14.5719 20.6312 14.7278 20.7211C14.8837 20.811 15.6369 20.9957 15.9512 21.6237C16.2654 22.2517 16.9863 23.3476 16.3902 24.7895C16.2492 25.1318 16.0884 25.5184 16.0884 25.5184C16.0884 25.5184 16.7568 24.8203 16.9401 23.4621C17.086 22.3748 15.3276 19.6831 15.3077 19.3199C15.2877 18.9566 15.1967 18.7608 15.0707 18.8593Z" fill="black"/>
<path d="M5.67114 11.7461C5.76966 11.8262 8.07805 13.7274 9.43864 14.2211C10.596 14.6435 12.1386 16.0682 12.4317 16.3477C12.4869 16.4004 12.5606 16.43 12.6375 16.4302C12.7124 16.4297 12.7845 16.4016 12.8395 16.3514C13.7125 15.5436 14.2113 15.12 14.3285 15.0572C14.5854 15.0178 15.4135 14.6694 15.7577 14.4662C16.1493 14.2347 19.605 12.0724 19.7484 11.9813L19.5726 11.6981C19.5364 11.7203 15.9735 13.9502 15.5819 14.178C15.1707 14.4032 14.7374 14.5864 14.2886 14.7248C14.2026 14.7248 14.1053 14.7248 12.6375 16.0792C12.1735 15.6384 10.7269 14.327 9.55712 13.9047C8.2514 13.4294 5.91433 11.506 5.89188 11.4863L5.67114 11.7461Z" fill="black"/>
<path d="M5.54469 31.2609C5.55145 31.2942 5.55145 31.3285 5.54469 31.3618C5.53711 31.3865 5.52453 31.4094 5.5077 31.4291C5.49087 31.4487 5.47015 31.4648 5.44681 31.4764C5.42346 31.4879 5.39799 31.4946 5.37194 31.4961C5.34588 31.4976 5.3198 31.4938 5.29527 31.485C5.23117 31.4541 5.18031 31.4017 5.15186 31.3372C5.11471 31.2748 5.09856 31.2024 5.10571 31.1303C5.1104 31.1013 5.122 31.0738 5.13956 31.05C5.15712 31.0262 5.18014 31.0069 5.20673 30.9937C5.22873 30.9798 5.25351 30.9709 5.27936 30.9675C5.3052 30.9641 5.33148 30.9663 5.35638 30.974C5.38581 30.9868 5.41184 31.0062 5.43245 31.0306L5.59208 30.9493C5.5648 30.9031 5.52391 30.8662 5.47486 30.8434C5.42049 30.8202 5.3611 30.8107 5.30207 30.8158C5.24305 30.821 5.18626 30.8406 5.13689 30.873C5.04777 30.916 4.97958 30.9922 4.94733 31.0848C4.92171 31.1942 4.9353 31.3089 4.98578 31.4095C5.03627 31.5101 5.12052 31.5903 5.22419 31.6364C5.31518 31.6597 5.41153 31.6509 5.49667 31.6115C5.5818 31.5722 5.65038 31.5048 5.6906 31.4209C5.72135 31.3444 5.7253 31.2599 5.70183 31.1808L5.54469 31.2609Z" fill="black"/>
<path d="M6.04062 31.1524L5.95582 30.9677C6.10422 30.8987 6.1778 30.8643 6.32995 30.7978L6.27632 30.6746C6.12667 30.7411 6.05184 30.7756 5.90219 30.847C5.87351 30.7855 5.85979 30.7559 5.83235 30.6943C5.99572 30.6168 6.08177 30.5798 6.2439 30.5059C6.22145 30.4555 6.21022 30.4296 6.18902 30.3828C5.95831 30.485 5.84358 30.538 5.61536 30.65C5.7488 30.9345 5.81614 31.0761 5.95083 31.3605C6.17406 31.2509 6.28755 31.1992 6.51452 31.0995C6.49332 31.0465 6.48209 31.0206 6.45965 30.9689C6.29004 31.0379 6.20648 31.0761 6.04062 31.1524Z" fill="black"/>
<path d="M6.81833 30.1157C6.89565 30.3214 6.93431 30.4236 7.01288 30.6292C6.8121 30.4716 6.70983 30.394 6.50282 30.2426L6.32947 30.3165C6.45418 30.6071 6.5103 30.7524 6.63002 31.0429L6.77718 30.9814L6.56891 30.463C6.77967 30.6169 6.88318 30.6957 7.08521 30.8558L7.24484 30.7954L6.97422 30.0566L6.81833 30.1157Z" fill="black"/>
<path d="M7.71815 29.7969C7.45626 29.8818 7.32532 29.9274 7.06592 30.0247L7.11331 30.1552L7.35275 30.0678C7.43631 30.314 7.47746 30.4372 7.56227 30.6834L7.72314 30.628C7.64208 30.3818 7.59843 30.2586 7.51986 30.0124C7.61589 29.9791 7.66453 29.9631 7.76055 29.9323C7.7431 29.872 7.73312 29.8449 7.71815 29.7969Z" fill="black"/>
<path d="M8.63741 30.2733C8.62733 30.2507 8.6194 30.2272 8.61371 30.2031L8.6 30.1526C8.59229 30.111 8.57382 30.0719 8.54637 30.0394C8.52014 30.0163 8.48668 30.0028 8.45159 30.0012C8.48902 29.9789 8.51628 29.9431 8.52766 29.9014C8.53765 29.8635 8.53765 29.8237 8.52766 29.7857C8.52127 29.7584 8.50893 29.7327 8.4915 29.7106C8.47553 29.6899 8.45613 29.672 8.43413 29.6576C8.40697 29.6396 8.37567 29.6286 8.34309 29.6256C8.29791 29.623 8.25262 29.6288 8.20965 29.6429C8.05377 29.6884 7.9752 29.7118 7.82056 29.766L8.05127 30.5184L8.20841 30.4691L8.12111 30.1736L8.28323 30.1243C8.31572 30.1119 8.35176 30.1119 8.38425 30.1243C8.41251 30.1462 8.43125 30.1779 8.43663 30.213L8.45783 30.2844C8.46366 30.306 8.47159 30.3271 8.48152 30.3472C8.48152 30.357 8.49399 30.3694 8.50397 30.3854L8.68355 30.3349V30.3164C8.67266 30.314 8.66262 30.3087 8.65451 30.3011C8.64639 30.2935 8.64048 30.2839 8.63741 30.2733ZM8.3406 29.9544C8.31786 29.9711 8.29201 29.9833 8.26453 29.9901L8.08494 30.0431L8.02508 29.8399L8.2109 29.7845C8.23721 29.775 8.26547 29.772 8.29321 29.7759C8.32813 29.782 8.35182 29.8091 8.36429 29.8547C8.3711 29.8717 8.37248 29.8904 8.36825 29.9082C8.36401 29.926 8.35437 29.9421 8.3406 29.9544Z" fill="black"/>
<path d="M8.86864 29.4628C8.82374 29.799 8.80503 29.9664 8.77136 30.3014L8.94222 30.257C8.94222 30.1893 8.95095 30.1548 8.95718 30.0859C9.07316 30.0575 9.13178 30.0428 9.249 30.0169L9.3363 30.1634L9.51464 30.124C9.3388 29.8384 9.249 29.6968 9.06443 29.416L8.86864 29.4628ZM8.9709 29.943C8.98337 29.8125 8.99085 29.746 9.00457 29.6155C9.07441 29.7263 9.10808 29.783 9.17542 29.8938L8.9709 29.943Z" fill="black"/>
<path d="M9.7541 29.9362L9.63563 29.3008L9.46228 29.3353L9.61567 30.1085C9.83891 30.063 9.95114 30.0421 10.1756 30.0039C10.1669 29.9485 10.1619 29.9201 10.1532 29.8647C9.99355 29.8906 9.91373 29.9054 9.7541 29.9362Z" fill="black"/>
<path d="M11.0649 29.4519C11.0876 29.4386 11.1076 29.421 11.1235 29.4002C11.1475 29.3638 11.1573 29.32 11.151 29.2771C11.1478 29.2341 11.1302 29.1934 11.1011 29.1613C11.0709 29.1345 11.0347 29.1151 10.9955 29.1046C10.9563 29.0941 10.9151 29.0929 10.8753 29.101C10.7145 29.1194 10.6334 29.1293 10.4725 29.1527C10.5137 29.4655 10.5349 29.6206 10.5773 29.9334C10.7207 29.9137 10.793 29.905 10.9365 29.8878C10.9741 29.8836 11.0113 29.8758 11.0474 29.8644C11.0795 29.8545 11.1089 29.8377 11.1335 29.8152C11.1549 29.7966 11.1723 29.774 11.1846 29.7487C11.2039 29.7106 11.2121 29.6679 11.2083 29.6255C11.2065 29.5847 11.1917 29.5455 11.1659 29.5135C11.1406 29.4819 11.1049 29.4601 11.0649 29.4519ZM10.6559 29.2697L10.8354 29.2475C10.8684 29.2418 10.9022 29.2418 10.9352 29.2475C10.9502 29.2513 10.9634 29.2599 10.9729 29.2719C10.9824 29.284 10.9875 29.2988 10.9876 29.314C10.99 29.3273 10.9889 29.341 10.9843 29.3538C10.9797 29.3665 10.9718 29.3778 10.9614 29.3866C10.9364 29.404 10.9071 29.4142 10.8766 29.4162L10.6771 29.4408C10.6683 29.3731 10.6646 29.3386 10.6559 29.2697ZM10.9938 29.7327C10.9695 29.7466 10.9421 29.7546 10.914 29.756C10.8367 29.7659 10.7968 29.7696 10.7195 29.7807C10.7082 29.6969 10.7032 29.6575 10.6933 29.5713L10.8941 29.5467C10.9212 29.5414 10.9492 29.5414 10.9764 29.5467C10.9935 29.552 11.0086 29.5625 11.0196 29.5766C11.0305 29.5907 11.0368 29.6078 11.0375 29.6255C11.0423 29.6456 11.0408 29.6668 11.0329 29.686C11.0251 29.7052 11.0115 29.7215 10.9938 29.7327Z" fill="black"/>
<path d="M11.5505 29.0428C11.452 29.3667 11.4059 29.528 11.3198 29.8531L11.4944 29.8383C11.5106 29.7718 11.5194 29.7386 11.5368 29.6721L11.8336 29.6524L11.896 29.8112L12.0768 29.8038C11.9521 29.4923 11.886 29.3384 11.7488 29.0293L11.5505 29.0428ZM11.573 29.5354C11.6067 29.4122 11.6241 29.3458 11.659 29.2189C11.7089 29.3421 11.7339 29.3999 11.7837 29.5218L11.573 29.5354Z" fill="black"/>
<path d="M12.6669 29.0039C12.6669 29.2243 12.6669 29.3339 12.6669 29.5543C12.5422 29.3351 12.4699 29.2255 12.3314 29.0088H12.1469C12.1581 29.3241 12.1631 29.4817 12.1743 29.7969H12.3302C12.3239 29.5728 12.3214 29.4607 12.3165 29.2366C12.4574 29.457 12.5247 29.5691 12.6557 29.792H12.8228L12.829 29.0039H12.6669Z" fill="black"/>
<path d="M13.4953 29.0201C13.3594 29.1433 13.2933 29.2061 13.1623 29.3329C13.1623 29.2024 13.1623 29.1371 13.1711 29.0078H12.9977C12.9977 29.3243 12.9902 29.4819 12.984 29.7971H13.1486L13.1561 29.5336L13.2409 29.456C13.3369 29.5964 13.3843 29.6678 13.4766 29.8106C13.5627 29.8106 13.6013 29.8168 13.6911 29.823C13.5664 29.6284 13.4991 29.5311 13.3644 29.3403C13.5053 29.2171 13.5764 29.1543 13.7223 29.0337L13.4953 29.0201Z" fill="black"/>
<path d="M14.5347 29.0832C14.4356 29.0671 14.3341 29.0896 14.2516 29.146C14.2042 29.1838 14.1657 29.2314 14.139 29.2854C14.1123 29.3395 14.0979 29.3986 14.097 29.4588C14.0887 29.518 14.0927 29.5782 14.1088 29.6358C14.1249 29.6933 14.1527 29.7471 14.1905 29.7937C14.2545 29.865 14.3438 29.9091 14.4399 29.9168C14.5349 29.9324 14.6322 29.9112 14.7118 29.8577C14.7585 29.8201 14.7972 29.7735 14.8255 29.7209C14.8537 29.6682 14.871 29.6105 14.8764 29.5511C14.8877 29.4921 14.8861 29.4313 14.8716 29.3729C14.8572 29.3145 14.8304 29.2598 14.7928 29.2125C14.7274 29.1375 14.6346 29.091 14.5347 29.0832ZM14.6257 29.7211C14.6039 29.742 14.5775 29.7577 14.5485 29.7669C14.5195 29.7761 14.4887 29.7785 14.4586 29.774C14.4281 29.7717 14.3985 29.7625 14.3721 29.7471C14.3458 29.7317 14.3233 29.7106 14.3065 29.6854C14.2689 29.6218 14.2548 29.5474 14.2666 29.4748C14.2684 29.4012 14.2972 29.3308 14.3476 29.2765C14.3696 29.2546 14.3966 29.2383 14.4263 29.2288C14.4561 29.2194 14.4877 29.2172 14.5185 29.2224C14.5498 29.2246 14.5802 29.234 14.6073 29.2498C14.6343 29.2656 14.6573 29.2874 14.6744 29.3135C14.7106 29.3779 14.723 29.4528 14.7093 29.5253C14.7048 29.598 14.6753 29.6671 14.6257 29.7211Z" fill="black"/>
<path d="M14.9524 29.9552L15.117 29.9811L15.1669 29.6535C15.3103 29.6769 15.3826 29.6893 15.5261 29.7151L15.5498 29.5809C15.4051 29.5538 15.3328 29.5415 15.1881 29.5181C15.1993 29.4467 15.2043 29.411 15.2155 29.3396C15.3826 29.3654 15.465 29.3802 15.6321 29.411L15.657 29.2743C15.4201 29.2312 15.3016 29.2115 15.0634 29.1758C15.0185 29.4873 14.9973 29.6437 14.9524 29.9552Z" fill="black"/>
<path d="M16.5962 29.4793C16.5438 29.6936 16.5189 29.7995 16.4715 30.0137C16.3967 29.7675 16.3568 29.6443 16.272 29.3981L16.0911 29.3574C16.0275 29.6665 15.9951 29.8216 15.9315 30.1295L16.0849 30.164L16.2034 29.6172C16.2894 29.8635 16.3281 29.9866 16.4042 30.2329L16.5675 30.2748C16.6449 29.9694 16.6823 29.8155 16.7596 29.5101L16.5962 29.4793Z" fill="black"/>
<path d="M16.8996 29.5566C16.821 29.862 16.7749 30.0147 16.7013 30.3201L16.8634 30.3644C16.9457 30.0603 16.9881 29.9088 17.0704 29.6034L16.8996 29.5566Z" fill="black"/>
<path d="M17.4588 30.2402L17.6396 30.2993C17.6186 30.3429 17.5823 30.3775 17.5373 30.3966C17.4895 30.4145 17.4367 30.4145 17.3889 30.3966C17.3338 30.378 17.2871 30.3409 17.2567 30.2919C17.2402 30.2581 17.2309 30.2213 17.2294 30.1838C17.2279 30.1463 17.2342 30.1089 17.248 30.0739C17.2644 29.9984 17.3089 29.9316 17.3727 29.8868C17.3995 29.8705 17.4296 29.8602 17.4609 29.8568C17.4922 29.8534 17.5238 29.8569 17.5535 29.8671C17.585 29.8771 17.6142 29.893 17.6396 29.9139C17.6603 29.9301 17.6766 29.9513 17.6868 29.9754C17.6971 29.9995 17.701 30.0258 17.6982 30.0518L17.8628 30.1072C17.8701 30.0698 17.8696 30.0313 17.8615 29.9941C17.8534 29.9568 17.8377 29.9216 17.8154 29.8905C17.7605 29.8155 17.6813 29.7612 17.591 29.7366C17.5389 29.7176 17.4834 29.7099 17.4281 29.7139C17.3728 29.718 17.3191 29.7337 17.2705 29.76C17.2224 29.789 17.1807 29.8273 17.1479 29.8726C17.1152 29.9178 17.0919 29.9691 17.0796 30.0235C17.0456 30.128 17.0541 30.2415 17.1033 30.3399C17.1266 30.3849 17.1592 30.4246 17.1989 30.4564C17.2386 30.4882 17.2847 30.5114 17.3341 30.5246C17.3885 30.5436 17.447 30.5479 17.5037 30.5369C17.5416 30.5267 17.5777 30.511 17.6109 30.4901C17.6109 30.5295 17.6034 30.5492 17.5972 30.5886L17.7032 30.6244C17.7568 30.4643 17.783 30.3781 17.8366 30.2229C17.7044 30.1786 17.6396 30.1564 17.5074 30.1146C17.485 30.1675 17.4775 30.1897 17.4588 30.2402Z" fill="black"/>
<path d="M18.2281 30.1245C18.3965 30.186 18.4775 30.218 18.6471 30.2858L18.697 30.1552C18.4638 30.0617 18.3466 30.0173 18.1109 29.9336L17.8615 30.6724C18.0934 30.7549 18.2094 30.7955 18.4389 30.8916L18.49 30.7586C18.3204 30.6909 18.2406 30.6589 18.0647 30.5961L18.1321 30.4052C18.2842 30.4606 18.3603 30.4889 18.5062 30.5493L18.5561 30.4261C18.4039 30.3658 18.3279 30.3375 18.1745 30.2808L18.2281 30.1245Z" fill="black"/>
<path d="M19.3167 30.7805C19.3481 30.7581 19.373 30.728 19.389 30.6931C19.401 30.6672 19.4074 30.6391 19.4077 30.6106C19.4079 30.5839 19.4037 30.5572 19.3953 30.5318C19.3849 30.5004 19.3674 30.4718 19.3441 30.4481C19.31 30.4172 19.2707 30.3922 19.2282 30.3742C19.0785 30.3077 19.0024 30.2757 18.854 30.2129C18.738 30.506 18.6807 30.6525 18.5647 30.9443L18.7181 31.0096C18.7655 30.8951 18.7892 30.8384 18.8353 30.7239L18.9912 30.7904C19.0255 30.8008 19.0545 30.8237 19.0723 30.8544C19.0808 30.8894 19.0759 30.9262 19.0586 30.9579L19.0311 31.0256C19.0216 31.0465 19.0145 31.0684 19.0099 31.0908C19.0099 31.1007 19.0099 31.1155 19.0037 31.1339L19.1758 31.2127L19.1845 31.1943C19.179 31.1865 19.1752 31.1776 19.1733 31.1683C19.1713 31.159 19.1713 31.1494 19.1733 31.1401C19.1797 31.1163 19.1884 31.0932 19.1995 31.0711L19.2207 31.0231C19.2405 30.9851 19.2499 30.9427 19.2481 30.9C19.2424 30.8649 19.2249 30.8328 19.1982 30.8089C19.2399 30.815 19.2824 30.8048 19.3167 30.7805ZM19.1371 30.7005C19.1085 30.6986 19.0805 30.6911 19.0548 30.6783L18.8802 30.6032L18.9563 30.4111L19.1359 30.4887C19.1625 30.4987 19.1865 30.5147 19.2057 30.5355C19.2175 30.5507 19.2244 30.5689 19.2258 30.588C19.2271 30.607 19.2227 30.626 19.2132 30.6426C19.208 30.659 19.198 30.6735 19.1845 30.6843C19.1709 30.695 19.1544 30.7015 19.1371 30.703V30.7005Z" fill="black"/>
<path d="M19.6236 30.5586L19.2969 31.274L19.4503 31.3479C19.585 31.0634 19.6511 30.9206 19.7845 30.6362C19.7209 30.6042 19.6885 30.5894 19.6236 30.5586Z" fill="black"/>
<path d="M19.5438 31.3961L19.7047 31.4773L19.8294 31.3542C19.9379 31.4096 19.9928 31.4392 20.1013 31.497C20.0913 31.5648 20.0851 31.5992 20.0751 31.667L20.2397 31.7581C20.2859 31.4232 20.3071 31.2557 20.342 30.9183L20.1611 30.8223C19.908 31.0464 19.7845 31.1609 19.5438 31.3961ZM20.12 31.3591C20.0439 31.3185 20.0065 31.2976 19.9292 31.2582L20.1661 31.0328C20.1487 31.1597 20.1399 31.2249 20.12 31.3554V31.3591Z" fill="black"/>
<path d="M9.75455 17.7C9.79695 17.3835 8.34158 16.2224 8.34158 16.2224L7.91383 15.9897C7.91383 15.9897 6.16788 17.1976 4.63893 16.2433C3.10998 15.289 3.07756 13.9124 3.48412 12.1639C3.89067 10.4154 5.69772 9.75907 5.795 9.7012C6.43227 9.35519 7.14312 9.5165 8.03978 10.0497C8.93645 10.5828 9.19585 11.4189 9.17465 11.7994C9.15345 12.1799 9.2819 12.75 9.56 12.8978C9.83811 13.0455 11.4643 13.3632 12.1216 13.4051C12.7788 13.4469 12.5131 12.7709 12.4495 12.3695C12.3859 11.9681 10.9767 10.7109 10.0763 9.70612C9.1759 8.70135 8.12833 7.89482 6.12548 8.08444C4.12263 8.27407 3.07756 9.66918 2.30685 10.6629C1.53614 11.6566 1.33161 13.82 2.02875 15.5439C2.72588 17.2678 4.49177 18.1224 5.41962 18.3969C6.34747 18.6715 8.55609 18.3551 9.17714 18.2923C9.7982 18.2295 9.71215 18.0165 9.75455 17.7ZM8.06348 8.88482C9.17714 9.18526 11.0179 12.0371 11.3596 12.2094C11.7013 12.3818 11.8584 12.5468 11.7025 12.6318C11.5466 12.7168 10.7934 12.5259 10.413 12.5259C10.0327 12.5259 9.77575 12.4028 9.75455 12.2094C9.73335 12.0161 9.87926 11.1948 9.41285 10.6247C8.94643 10.0546 8.19193 8.88851 6.54451 8.88851H5.7102C5.7102 8.88851 6.67296 8.50803 8.06348 8.88482ZM7.14312 17.8268C4.61773 17.8687 3.59012 16.8972 2.62735 15.5661C1.66459 14.235 2.39165 12.4385 2.39165 12.3744C2.39165 12.3744 2.54255 13.2622 2.51636 13.5159C2.49017 13.7696 2.12727 14.0208 3.28707 15.8407C4.44688 17.6606 6.06936 17.1718 6.79767 17.1299C7.52598 17.088 7.37508 16.7703 7.58958 16.6854C7.80408 16.6004 8.38149 17.301 8.38149 17.301C8.38149 17.301 9.6685 17.785 7.14312 17.8268Z" fill="#D8B38C"/>
<path d="M22.9703 10.663C22.1996 9.66932 21.1558 8.27544 19.1517 8.08458C17.1476 7.89372 16.1001 8.70764 15.2021 9.70626C14.3042 10.7049 12.89 11.9732 12.8264 12.3746C12.7628 12.776 12.4959 13.452 13.1532 13.4101C13.8104 13.3683 15.4366 13.0506 15.7135 12.9028C15.9903 12.7551 16.12 12.185 16.0988 11.8045C16.0776 11.424 16.337 10.5879 17.2349 10.0547C18.1328 9.52156 18.8449 9.36025 19.4797 9.70626C19.577 9.7592 21.384 10.4094 21.7906 12.1689C22.1971 13.9285 22.1572 15.2916 20.6358 16.2472C19.1143 17.2027 17.3609 15.9935 17.3609 15.9935L16.9331 16.2262C16.9331 16.2262 15.4778 17.3886 15.5202 17.7038C15.5626 18.0191 15.4778 18.2321 16.0976 18.2961C16.7174 18.3601 18.9247 18.6754 19.8551 18.4008C20.7854 18.1262 22.5501 17.2729 23.246 15.5477C23.9418 13.8226 23.7411 11.6567 22.9703 10.663ZM18.7302 8.88495C17.0828 8.88495 16.3333 10.0498 15.8619 10.6211C15.3905 11.1925 15.5401 12.015 15.5189 12.2059C15.4977 12.3967 15.2408 12.5223 14.8604 12.5223C14.4801 12.5223 13.7206 12.7132 13.5709 12.6282C13.4213 12.5433 13.5709 12.3746 13.9139 12.2059C14.2568 12.0372 16.0963 9.1854 17.21 8.88126C18.6005 8.50447 19.5645 8.88126 19.5645 8.88126L18.7302 8.88495ZM22.6474 15.5662C21.6846 16.8973 20.652 17.8688 18.1316 17.827C15.6112 17.7851 16.8845 17.2987 16.8845 17.2987C16.8845 17.2987 17.4631 16.6018 17.6764 16.683C17.8897 16.7643 17.7412 17.0845 18.4683 17.1276C19.1954 17.1707 20.8191 17.6583 21.9789 15.8383C23.1387 14.0184 22.7708 13.7672 22.7496 13.5136C22.7284 13.2599 22.8743 12.3721 22.8743 12.3721C22.8855 12.4349 23.6126 14.2339 22.6498 15.5662H22.6474Z" fill="#D8B38C"/>
<path d="M15.5573 18.3043C15.2393 18.0962 14.7604 17.6074 14.5596 18.1972C14.3588 18.787 14.0396 20.3287 14.0608 20.6279C14.082 20.9271 14.5247 21.2559 14.8552 21.3815C15.1856 21.5071 16.7695 23.1349 14.9462 25.4326C14.8814 25.5126 14.1306 26.5297 12.4919 26.2182C10.8532 25.9066 9.70463 25.3562 9.44398 23.657C9.18334 21.9577 10.8495 20.8938 10.8495 20.8938L10.8058 20.4309C10.8058 20.4309 10.3444 18.7181 10.0576 18.6343C9.77072 18.5506 9.62356 18.3967 9.34546 18.9151C9.06736 19.4335 7.99984 21.2386 7.89757 22.156C7.79531 23.0733 7.88261 24.9388 9.09604 26.2034C10.3095 27.468 12.2213 28.112 13.3437 27.8165C14.4661 27.5209 16.0287 27.1392 16.9154 25.4621C17.8021 23.785 17.489 22.5598 16.9653 21.3987C16.4415 20.2375 15.8753 18.5137 15.5573 18.3043ZM9.29308 25.6715C8.5099 24.3244 8.05471 23.0573 9.00375 20.8692C9.9528 18.6811 9.90167 19.9863 9.90167 19.9863C9.90167 19.9863 10.2858 20.7559 10.1361 20.9111C9.98647 21.0662 9.77197 20.8113 9.47765 21.427C9.18334 22.0427 8.17692 23.274 9.30555 24.9831C10.4342 26.6922 10.7784 26.4607 11.0016 26.5396C11.2248 26.6184 11.9207 27.0912 11.9207 27.0912C11.8671 27.0666 10.0775 27.0198 9.29308 25.6715ZM16.9378 23.4649C16.7545 24.8194 16.0861 25.5212 16.0861 25.5212C16.0861 25.5212 16.2469 25.1346 16.3879 24.7923C16.984 23.3528 16.2631 22.2545 15.9489 21.6265C15.6346 20.9985 14.8801 20.815 14.7255 20.7239C14.5708 20.6328 14.5571 20.3607 14.6943 20.0282C14.8315 19.6957 14.9437 18.9619 15.0684 18.8621C15.1931 18.7624 15.2842 18.9594 15.3029 19.3226C15.3216 19.6859 17.085 22.3776 16.9378 23.4649Z" fill="#D8B38C"/>
</g>
<defs>
<clipPath id="clip0_11_5579">
<rect width="25.1429" height="33" fill="white"/>
</clipPath>
</defs>
</svg>
